<svg xmlns="http://www.w3.org/2000/svg" viewBox="0 0 423.37 333.2"><defs><style>.cls-1{fill:#461047;}</style></defs><title>utopia_logo</title><g id="Capa_2" data-name="Capa 2"><g id="Capa_1-2" data-name="Capa 1"><path class="cls-1" d="M77.74,172.14c5.68,16,10.8,32.32,20.08,47a1.42,1.42,0,0,0,2.62-.87L100,212.1c-1.82-24.43-1.29-48.7,3.5-72.81,5.77-29.1,24.45-47.4,50.61-59.71h0A1.4,1.4,0,0,1,156,80.82c.64,11.88,1.27,23.64,1.91,35.78a1.43,1.43,0,0,0,2.73.49c4.06-9.35,7.85-18.32,12-27.11,4.9-10.32,10.71-20.17,18.83-28.48,5.71-5.84,7.35-6.4,14.72-2.73C217,64.12,227.46,70,238.1,75.52c2.92,1.53,4.08,3.74,4.54,6.89,2.71,18.42,8.8,35.61,20.8,50.35A75.77,75.77,0,0,0,272.7,142a1.42,1.42,0,0,0,2.29-1.49,82,82,0,0,1-3.05-32.46,1.43,1.43,0,0,1,2.51-.78c.49.58.91,1.07,1.29,1.59,10.63,14.15,17.06,30.17,21.78,46.9,5.71,20.2,11.21,40.46,16.92,60.66a10.5,10.5,0,0,0,2.67,3.81c7.1,7.5,14.54,14.72,21.3,22.5,5.21,6,5.44,17.29.85,24.18a1.43,1.43,0,0,1-2.45-.12l-7.26-13.59a1.42,1.42,0,0,0-1.95-.58,32.73,32.73,0,0,0-12.18,12.26c-3.77,6.52.93,10.84,3.76,15.87a1.42,1.42,0,0,1-1,2.07c-9.36,1.79-18.53,3.75-26.65,9.74a1.43,1.43,0,0,1-1.92-.18,73.87,73.87,0,0,1-5.94-6.87c-4.46-6.35-8.3-13.13-13-19.27-5.06-6.56-12.42-9.44-20.66-10.27a4.48,4.48,0,0,1-2.81-1.46c-6.82-8.71-14.53-16.51-24.95-20.92-15.43-6.53-28.45-17-43.05-24.76-14.35-7.59-17.9-20.3-21.3-33.74-.34-1.33-.62-2.68-1.06-4.08a1.42,1.42,0,0,0-2.7,0,59.63,59.63,0,0,0-2.44,8.13c-2,10.4-3.74,20.86-5.43,31.32a4.37,4.37,0,0,0,1.18,3.31c4,3.83,6.16,7.77,5.71,13.77-1.1,14.76-2.46,29.68-1.38,44.38,1.37,18.74,6.33,36.93,17.84,52.67a71.5,71.5,0,0,0,7.23,8.22,1.42,1.42,0,0,0,2.36-1.4c-9.2-32.91-16.93-65.81-7.82-100.69a1.43,1.43,0,0,1,1.91-.95c8.55,3.42,16.69,6.38,24.49,10,7.57,3.53,14.7,8,22.07,11.9,8.43,4.52,13.59,12,18.78,19.52,5,7.15,10.11,14.17,15,21.35,4.57,6.69,11.31,9.06,19.26,9.79a60.46,60.46,0,0,1,10.32,2c6.09,1.69,12,2.71,17.94.33,9.49-3.8,19.16-7.22,28.39-11.54a32.93,32.93,0,0,0,11.07-8.77c3.48-4.26,6.07-9.34,8.46-14.34,4.43-9.28,3.6-18.65-1.38-27.54-5.93-10.59-11.82-21.25-18.51-31.39a75.55,75.55,0,0,1-11-24.59c-3.82-16.29-7.85-32.54-11.77-48.81a10,10,0,0,1-.18-1,1.42,1.42,0,0,1,1.93-1.48c8.65,3.42,17.32,5.25,26.89,4.3a1.42,1.42,0,0,0,.41-2.72c-13.59-5.82-24.58-13.53-29.8-27.76a1.42,1.42,0,0,1,.66-1.74c42.47-22.94,92.16-42.38,116.83-82.89a1.42,1.42,0,0,0-1.8-2C414,25.62,406.57,29,399.11,32.19c-34.31,14.71-62.2,21.41-98.71,29a1.43,1.43,0,0,1-1.44-.55C287.28,44.46,222-17.55,137.84,4.8a.4.4,0,0,1-.15,0C101.32,9.43,81.3,48.85,73.14,56a.34.34,0,0,0-.09.08c-32.53,35-60.92,84.5-72.9,119.39a2.56,2.56,0,0,0,4.21,2.65,178,178,0,0,1,22.09-19,1.42,1.42,0,0,1,2,2C11,187.05,1.77,215.41,2.81,247.26a1.42,1.42,0,0,0,2.7.57L12,234.5c2.16-4.45,4.47-8.83,7-13.17a1.41,1.41,0,0,1,2.63.82c-.92,13-1.72,25.9,1.28,38.84A92.08,92.08,0,0,0,40.27,297.7a1.42,1.42,0,0,0,2.52-1c-1.19-12.34-2.34-24.64-.15-36.9a1.42,1.42,0,0,1,2.73-.23c6,16.58,13.32,32.31,27,44.87A1.42,1.42,0,0,0,74.69,303c-1.75-6.48-3.48-12.56-4.78-18.72A248.39,248.39,0,0,1,66.2,204c.47-4,6.1-25.34,8.9-31.93A1.42,1.42,0,0,1,77.74,172.14ZM296.65,91.48l-7.92-17.39"/><path class="cls-1" d="M204,138.24c2.8,2.79,24.7,24.22,38,17.72a11.64,11.64,0,0,0,2.53-1.69"/></g></g></svg>