<svg xmlns="http://www.w3.org/2000/svg" viewBox="0 0 161.73 155.47"><defs><style>.cls-1{fill:#914a78;}</style></defs><title>error_unicorn_icon</title><g id="Capa_2" data-name="Capa 2"><g id="Capa_1-2" data-name="Capa 1"><g id="icons_without_caption" data-name="icons without caption"><g id="UNICORN"><path class="cls-1" d="M109.5,25.08l-8.44,13.69c-.9-.06.17-.56-.75-.56-.49,0-1.9-1.14-2.36-1.14l5-8.8c0-3-21.3-3.48-24.48-1l-1.71-2.69-1.7,2.6s-.4.61-1,1.61C62,33.34,46.83,43,34.53,63.43c-11.9,20.18-24.81,64.5-29.47,87.46l15.94.38c-.34,1.37,1.09,2.9.75,4.2L0,154.64,5.18,130.3a212.17,212.17,0,0,1,26-68.93c23.23-38.6,54.07-39.2,60.51-39.2C93.56,22,109.5,25.08,109.5,25.08Z"/><path class="cls-1" d="M126.14.94,98,37.07a1.07,1.07,0,0,0,.58,1.69,40.27,40.27,0,0,1,11.3,4.64,45.06,45.06,0,0,1,8.08,6.4l.81.74,11.79-47C131.34-1.64,126.48.17,126.14.94Zm-11.24,46a37.56,37.56,0,0,0-4.14-3.07.4.4,0,0,1,.11-.73l5.22-1.49a.41.41,0,0,1,.51.49l-1,4.59A.39.39,0,0,1,114.9,46.9Zm2.63-9.83L104.9,40.68a.46.46,0,0,1-.26,0c-.93-.38-1.88-.73-2.83-1a.4.4,0,0,1-.2-.64l2.82-3.48h0l14-4a.41.41,0,0,1,.51.49l-1.12,4.75A.4.4,0,0,1,117.53,37.07Zm2.55-10.2h0l-11.31,3.22h0l5.16-6.35a.46.46,0,0,1,.21-.13l6.49-1.88a.4.4,0,0,1,.51.48Zm1.63-9.6-2,.58a.41.41,0,0,1-.43-.65l3.13-3.85a.41.41,0,0,1,.71.35l-.63,2.78A1.09,1.09,0,0,1,121.71,17.27Z"/><path class="cls-1" d="M119.55,49.69l-.81-.74c-2.47-2.43-2.45-3.42-5.19-5.54-3.46-2.68-11-5.07-15.89-5.83-1.93-.3-3.85-.62-5.79-.73q-1.35-.09-2.73-.09H87.68c-.46,0-.92,0-1.37.07a1.32,1.32,0,0,1-1.22-.61L78.46,25.79l-.61-1a1.33,1.33,0,0,0-2.23,0l-.57.87s-.4.61-1,1.61a38.84,38.84,0,0,0-4.8,15l-.53.92a32.54,32.54,0,0,0-3,2.46C44.24,62,31.55,100.83,25.14,127.11c-.34,1.37-.66,2.7-1,4-2.84,12.24-4.19,21-4.35,22.07l-.12.76A1.33,1.33,0,0,0,21,155.47H99.26a1.33,1.33,0,0,0,1.3-1.57l-.15-.8c-5.81-30.58,1-50,3.9-56.43a1.32,1.32,0,0,1,1.58-.73l40.72,11.87a8.88,8.88,0,0,0,10.77-5.34l4-10.51a4.63,4.63,0,0,0-1.19-5.08Zm36.09,46.15a10.92,10.92,0,0,1-13.23,6.55L102.89,90.87l-.18.29a27.49,27.49,0,0,1-34-3.41,27,27,0,0,1-4.63-5.9,1.32,1.32,0,0,0-2.23-.1L61,83a1.34,1.34,0,0,0,0,1.44,31.49,31.49,0,0,0,36.1,13.73,1.32,1.32,0,0,1,1.66,1.68c-3.22,9.21-7,26.59-2.65,51.61H24.11c.64-3.72,6.32-28.9,7.41-32.84,6.64-24,17.82-54,34.69-68.26l.06.12,2-1.74c.39-.34.78-.68,1.18-1a19.73,19.73,0,0,0,4.28,9.87,21.18,21.18,0,0,0,2.83,2.93h0l1.78-2.05a1.3,1.3,0,0,0-.08-1.77,17.31,17.31,0,0,1-2.18-2.58,16.51,16.51,0,0,1-3-9,22.06,22.06,0,0,1,.32-4.73,33.55,33.55,0,0,1,2.34-7.53,1.33,1.33,0,0,1,2.33-.17l3.17,5,2.3,3.61.69,1.09,2.33,3.66,2,3.19a1.33,1.33,0,0,0,1.84.4l1.17-.76A1.33,1.33,0,0,0,92,47.05L89,42.42,88,40.76h2.17a39.24,39.24,0,0,1,7.85,1l.42.1.25.06a37.42,37.42,0,0,1,17.11,9.77l.12.12.07.07,41.19,37.63a1.32,1.32,0,0,1,.34,1.45Z"/></g></g><path class="cls-1" d="M95.34,66.61c-.28,1.55,8.78,6.47,13.93,3.1.45-.3,1.88-2.54,1-2.25C101.81,70.13,95.69,64.72,95.34,66.61Z"/></g><g id="Capa_4" data-name="Capa 4"><path class="cls-1" d="M101.06,72.16c0,2.3-1.68,4.22-1.77,6.46-.05,1.16.56,2,1.75,1.81,4.26-.69,1.42-5.5,1.34-8.15,0-.28-1-.25-1,0a9.48,9.48,0,0,0,.63,3.13c.35,1,1,4.8-1,4.29-.85-.21-.77-.88-.61-1.68a16.06,16.06,0,0,1,.82-2.39,10.34,10.34,0,0,0,.87-3.54c0-.28-1-.26-1,0Z"/></g><g id="Capa_3" data-name="Capa 3"><path class="cls-1" d="M116.79,47l.25.39c.22.13.32.53.49.73l1.3,2.36L98.51,40a2.09,2.09,0,0,1-1.13-1.85l.75-.11C100.31,36.78,116.93,45.46,116.79,47Z"/></g></g></svg>