<svg xmlns="http://www.w3.org/2000/svg" viewBox="0 0 54.07 87.91"><defs><style>.cls-1,.cls-2{fill:#44afbf;}.cls-1{fill-rule:evenodd;}</style></defs><title>left-dopamine-text</title><g id="Capa_2" data-name="Capa 2"><g id="Capa_3" data-name="Capa 3"><path class="cls-1" d="M22.08,31.62a4.86,4.86,0,0,0-3,6.06c1.38,4.64,9.85,6.26,10,6.22s6.34-6,5-10.67a4.87,4.87,0,0,0-5.82-3.44,4.13,4.13,0,0,0-2.65,2.33,4.1,4.1,0,0,0-3.49-.5Z"/><path class="cls-2" d="M47.29,87.86l-.15,0C42.26,75,32.36,77.68,32.36,77.68S43.15,74.24,38.6,59c4.55,15.29,15.47,12.27,15.47,12.27s-9.78,3.13-6.78,16.64Z"/><path class="cls-2" d="M41.32,14.87l-.08,0c-2.51-6.66-7.6-5.26-7.6-5.26S39.19,7.86,36.85,0c2.34,7.86,7.95,6.31,7.95,6.31s-5,1.61-3.48,8.56Z"/><path class="cls-2" d="M19,69.18l-.08,0c-2.51-6.66-7.6-5.26-7.6-5.26s5.55-1.77,3.21-9.63c2.34,7.86,8,6.31,8,6.31s-5,1.61-3.48,8.56Z"/><path class="cls-2" d="M7.68,34,7.6,34C5.09,27.32,0,28.72,0,28.72S5.55,27,3.21,19.09c2.34,7.86,8,6.31,8,6.31S6.13,27,7.68,34Z"/></g></g></svg>