<svg xmlns="http://www.w3.org/2000/svg" viewBox="0 0 29.87 66.81"><defs><style>.cls-1,.cls-2{fill:#44afbf;}.cls-2{fill-rule:evenodd;}</style></defs><title>right-dopamine-text</title><g id="Capa_2" data-name="Capa 2"><g id="Capa_3" data-name="Capa 3"><path class="cls-1" d="M16.84,40.52l-.14,0c.79-12.2-8.18-13.61-8.18-13.61S18.46,28,20.36,14.08c-1.9,14,8,15.5,8,15.5s-9-1-11.51,10.94Z"/><path class="cls-2" d="M22.46,0a3.51,3.51,0,0,0-3.77,3.09c-.47,3.46,4.62,7,4.72,7.05s6-2.07,6.43-5.54A3.51,3.51,0,0,0,27,.65a3,3,0,0,0-2.43.74A3,3,0,0,0,22.46,0Z"/><path class="cls-1" d="M8.07,19.29H8c.38-5.87-3.93-6.55-3.93-6.55s4.78.55,5.69-6.17C8.85,13.28,13.61,14,13.61,14s-4.34-.5-5.54,5.26Z"/><path class="cls-2" d="M3.79,56.66A3.51,3.51,0,0,0,0,59.75c-.47,3.47,4.62,7,4.72,7.06s5.95-2.08,6.42-5.54a3.51,3.51,0,0,0-2.8-4A3,3,0,0,0,5.94,58a3,3,0,0,0-2.15-1.36Z"/><path class="cls-1" d="M22.26,57.63h-.07c.38-5.88-3.94-6.56-3.94-6.56s4.79.56,5.7-6.16c-.91,6.72,3.85,7.46,3.85,7.46s-4.34-.5-5.54,5.26Z"/></g></g></svg>